# xmcd CD database file
#
# Track frame offsets:
#	150
#	78871
#	160912
#
# Disc length: 3122 seconds
#
# Revision: 0
# Processed by: cddbd v1.5.2PL0 Copyright (c) Steve Scherf et al.
# Submitted via: CDex 2.01
#
DISCID=150c3003
DTITLE=The Chick Corea Band and the Steve Gadd Band - Chines Butterfly/Disc Two
DYEAR=2017
DGENRE=Jazz
TTITLE0=Return to Forever (featuring Philip Bailey)
TTITLE1=Wake-Up Call
TTITLE2=Gadd-Zooks
EXTD=YEAR: 2017
EXTT0=
EXTT1=
EXTT2=
PLAYORDER=
